<svg width="192" height="211" viewBox="0 0 192 211" fill="none" xmlns="http://www.w3.org/2000/svg">
<path d="M15 207C6.71573 207 -2.93554e-07 200.284 -6.55671e-07 192L-8.39259e-06 15C-8.7547e-06 6.71573 6.71572 2.07455e-06 15 1.55813e-06L81 -2.55612e-06C89.2843 -3.07254e-06 96 6.71572 96 15L96 192C96 200.284 89.2843 207 81 207L15 207Z" fill="#F6B463"/>
<path d="M111 207C102.716 207 96 200.284 96 192L96 154.5L96 117C96 108.716 102.716 102 111 102L177 102C185.284 102 192 108.716 192 117L192 192C192 200.284 185.284 207 177 207L111 207Z" fill="#D89F87"/>
<path d="M111 102C102.716 102 96 95.2843 96 87L96 51L96 15C96 6.71574 102.716 7.78636e-06 111 7.32932e-06L177 3.68818e-06C185.284 3.23114e-06 192 6.71573 192 15L192 87C192 95.2843 185.284 102 177 102L111 102Z" fill="#F1D28C"/>
<path d="M102.843 45.3963L136.073 56.5626C139.47 57.7043 141.507 61.6965 140.418 65.0788L132.245 90.4511C131.539 92.6425 129.661 94.0447 127.431 94.0446L89.8262 94.0441C85.5955 94.0441 82.3167 89.2452 83.7318 85.1244L96.2794 48.5864C97.2326 45.8106 100.03 44.451 102.843 45.3963Z" fill="#F72466" stroke="white" stroke-width="8"/>
<path d="M74.0383 99.2645C75.261 94.9659 79.1876 92.0005 83.6567 92.0005L127.761 92.0005C134.4 92.0005 139.196 98.3509 137.379 104.737L133.966 116.737C132.743 121.035 128.816 124.001 124.347 124.001L80.2432 124.001C73.6043 124.001 68.8084 117.65 70.6248 111.265L74.0383 99.2645Z" fill="white"/>
<path d="M62.1133 125.258C63.3384 120.962 67.2633 118 71.7298 118L126.432 118C133.074 118 137.87 124.356 136.049 130.743L122.072 179.743C120.847 184.039 116.922 187 112.455 187L57.7532 187C51.1112 187 46.3148 180.645 48.1367 174.258L62.1133 125.258Z" fill="white"/>
<path d="M139.57 64.7657C136.165 67.1656 95.6387 66.449 95.0994 66.4394C95.0826 66.4391 95.0848 66.4389 95.068 66.4381C89.893 66.1977 89.2348 64.2325 89.3747 60.3006C89.3806 60.1353 89.4082 59.9741 89.4552 59.8233L94.9922 42.0229C95.004 41.9848 95.0139 41.9492 95.0238 41.9103C95.1828 41.2853 96.7346 35.5426 100.722 32.7315C104.835 29.8324 106.878 28.6986 112.145 29.886C116.527 30.874 118.622 33.2594 119.184 36.2558C119.844 39.7691 119.929 42.1631 119.929 42.1631C119.929 42.1631 123.808 42.1612 130.175 43.5164C137.178 45.0072 143.564 49.0857 144.321 54.677C145.079 60.2683 142.997 62.3498 139.57 64.7657Z" fill="#F72466" stroke="white" stroke-width="8"/>
</svg>
